<?xml version="1.0" encoding="iso-8859-1"?>
<!-- Generator: Adobe Illustrator 18.0.0, SVG Export Plug-In . SVG Version: 6.00 Build 0)  -->
<!DOCTYPE svg PUBLIC "-//W3C//DTD SVG 1.1//EN" "http://www.w3.org/Graphics/SVG/1.1/DTD/svg11.dtd">
<svg version="1.1" id="Capa_1" xmlns="http://www.w3.org/2000/svg" xmlns:xlink="http://www.w3.org/1999/xlink" x="0px" y="0px"
	 viewBox="0 0 282.667 282.667" style="enable-background:new 0 0 282.667 282.667;" xml:space="preserve">
<g>
	<path d="M280.408,133.418c-1.973-3.175-49.35-77.751-139.074-77.751c-89.905,0-137.121,74.597-139.087,77.772
		c-2.995,4.838-2.995,10.953,0,15.791c1.966,3.176,49.183,77.77,139.087,77.77c89.724,0,137.101-74.574,139.074-77.748
		C283.42,144.404,283.42,138.265,280.408,133.418z M100.159,141.334c0-22.704,18.472-41.176,41.176-41.176
		c22.705,0,41.177,18.472,41.177,41.176s-18.472,41.176-41.177,41.176C118.63,182.51,100.159,164.039,100.159,141.334z
		 M57.552,165.764c-11.01-9.032-19.094-18.182-24.041-24.429c4.952-6.255,13.033-15.4,24.041-24.432
		c8.405-6.896,17.136-12.654,26.16-17.277c-8.515,11.73-13.554,26.138-13.554,41.708c0,15.568,5.039,29.976,13.552,41.705
		C74.687,178.417,65.957,172.66,57.552,165.764z M225.062,165.756c-8.379,6.868-17.076,12.607-26.059,17.223
		c8.486-11.719,13.508-26.103,13.508-41.645c0-15.543-5.022-29.927-13.51-41.646c8.983,4.615,17.681,10.354,26.061,17.224
		c11.014,9.028,19.111,18.172,24.075,24.422C244.169,147.59,236.073,156.731,225.062,165.756z"/>
	<path d="M163.747,141.334c0-1.825-0.224-3.598-0.635-5.296c-1.857,1.132-4.029,1.796-6.362,1.796c-6.765,0-12.25-5.484-12.25-12.25
		c0-2.239,0.61-4.331,1.66-6.138c-1.556-0.341-3.169-0.526-4.826-0.526c-12.378,0-22.413,10.035-22.413,22.414
		c0,12.379,10.035,22.412,22.413,22.412C153.713,163.747,163.747,153.713,163.747,141.334z"/>
</g>
<g>
</g>
<g>
</g>
<g>
</g>
<g>
</g>
<g>
</g>
<g>
</g>
<g>
</g>
<g>
</g>
<g>
</g>
<g>
</g>
<g>
</g>
<g>
</g>
<g>
</g>
<g>
</g>
<g>
</g>
</svg>
